#!OML:ASF E:\acrobat2\Project_11_07_03\Capture day 1\Session 1\Acrobat.ASF
:FULLY-SPECIFIED
:DEGREES
633
root 12.3726 18.4347 29.5318 190.404 -98.9527 173.867
lowerback -4.81407 0.304931 1.40719
upperback -3.84393 0.279138 -0.715467
thorax -1.24072 0.0700514 -1.5125
lowerneck -0.785475 -2.39105 1.06198
upperneck 1.77768 -3.24532 1.63691
head 0.678461 -1.60596 0.296517
rclavicle 1.41634e-015 -2.5842e-015
rhumerus -21.905 -31.1532 -358.398
rradius 21.4528
rwrist 369.213
rhand -13.2409 -48.5551
rfingers 7.12502
rthumb 12.861 -78.1389
lclavicle 1.41634e-015 -2.5842e-015
lhumerus 2.13755 18.275 7.09199
lradius 20.1329
lwrist 8.20117
lhand -16.2339 -7.13287
lfingers 7.12502
lthumb 9.97451 22.6108
rfemur 9.02035 23.0409 5.28804
rtibia -4.69919
rfoot -44.7197 -34.5448
rtoes 39.6773
lfemur 4.35382 -6.28752 -8.39443
ltibia -2.41749
lfoot -201.459 177.346
ltoes 36.3201
634
root 12.3695 18.4315 29.5284 191.201 -99.1569 173.02
lowerback -4.80589 0.262999 1.55361
upperback -3.82737 0.219304 -0.69249
thorax -1.2302 0.0379566 -1.57326
lowerneck -0.889775 -2.30386 0.758669
upperneck 1.97039 -3.14066 2.06763
head 0.768251 -1.55017 0.475467
rclavicle 1.71203e-014 -3.97569e-015
rhumerus -21.8601 -31.5357 -358.413
rradius 21.3924
rwrist 369.452
rhand -13.1256 -48.3131
rfingers 7.12502
rthumb 12.9721 -77.8899
lclavicle 1.71203e-014 -3.97569e-015
lhumerus 1.9925 18.3637 7.01592
lradius 20.1983
lwrist 8.30124
lhand -16.1251 -7.24405
lfingers 7.12502
lthumb 10.0794 22.4946
rfemur 9.31808 23.3904 5.66466
rtibia -4.83919
rfoot -45.8568 -34.1224
rtoes 40.4922
lfemur 4.3199 -6.33822 -8.17264
ltibia -2.33136
lfoot -201.34 177.311
ltoes 36.3883
635
root 12.3647 18.4267 29.5233 191.5 -99.2895 172.717
lowerback -4.85396 0.235177 1.5597
upperback -3.81658 0.181541 -0.674194
thorax -1.19382 0.019626 -1.55916
lowerneck -1.05326 -2.22944 0.557621
upperneck 2.24964 -3.05462 2.34466
head 0.8904 -1.50265 0.591024
rclavicle -3.60297e-015 -3.97569e-015
rhumerus -21.7204 -32.7959 -358.316
rradius 21.0907
rwrist 370.51
rhand -13.0289 -48.165
rfingers 7.12502
rthumb 13.0653 -77.7358
lclavicle -3.60297e-015 -3.97569e-015
lhumerus 1.94639 18.997 7.11069
lradius 20.1191
lwrist 7.75866
lhand -16.1506 -7.25454
lfingers 7.12502
lthumb 10.0549 22.4853
rfemur 9.50256 23.5742 5.83478
rtibia -4.95843
rfoot -46.7546 -33.625
rtoes 41.5434
lfemur 4.26154 -6.4479 -8.07024
ltibia -2.25321
lfoot -201.343 177.409
ltoes 36.3758
636
root 12.3598 18.4232 29.5185 191.113 -99.3386 173.109
lowerback -4.90637 0.227985 1.48038
upperback -3.80398 0.173685 -0.719782
thorax -1.15196 0.0171755 -1.56168
lowerneck -1.02477 -2.21225 0.561519
upperneck 2.2614 -3.03241 2.36476
head 0.889358 -1.49149 0.597058
rclavicle 2.52705e-014 8.34896e-015
rhumerus -21.6366 -33.4371 -358.349
rradius 20.9359
rwrist 370.978
rhand -13.0738 -48.0976
rfingers 7.12502
rthumb 13.022 -77.6711
lclavicle 2.52705e-014 8.34896e-015
lhumerus 1.90768 19.4301 7.13333
lradius 20.0702
lwrist 7.31295
lhand -16.2411 -7.16663
lfingers 7.12502
lthumb 9.96758 22.5774
rfemur 9.57348 23.3888 5.72035
rtibia -5.04172
rfoot -46.9364 -33.2959
rtoes 42.3077
lfemur 4.21005 -6.37915 -8.1064
ltibia -2.16279
lfoot -201.282 177.587
ltoes 35.9169
637
root 12.355 18.4221 29.5137 190.25 -99.3629 173.899
lowerback -4.89803 0.222242 1.36623
upperback -3.75421 0.17092 -0.813426
thorax -1.1054 0.0182261 -1.5939
lowerneck -0.858962 -2.18775 0.629801
upperneck 2.09744 -2.99582 2.40412
head 0.809856 -1.47534 0.60074
rclavicle -1.22004e-014 -2.38542e-015
rhumerus -21.6191 -34.3878 -358.263
rradius 20.7649
rwrist 371.895
rhand -13.0492 -48.1274
rfingers 7.12502
rthumb 13.0458 -77.6994
lclavicle -1.22004e-014 -2.38542e-015
lhumerus 1.81184 19.2481 6.957
lradius 20.1496
lwrist 7.62996
lhand -16.2888 -7.12608
lfingers 7.12502
lthumb 9.92156 22.6201
rfemur 9.67438 22.9319 5.49254
rtibia -5.06231
rfoot -46.4614 -33.1988
rtoes 42.2031
lfemur 4.24387 -6.16738 -8.21565
ltibia -2.05458
lfoot -201.081 177.618
ltoes 35.1009
638
root 12.3507 18.4225 29.507 189.704 -99.3775 174.358
lowerback -4.86547 0.236152 1.25127
upperback -3.70094 0.19523 -0.864236
thorax -1.0678 0.0333843 -1.58061
lowerneck -0.812156 -2.19903 0.655537
upperneck 2.04845 -3.01135 2.46924
head 0.787813 -1.48339 0.617024
rclavicle -5.96354e-015 -1.98785e-015
rhumerus -21.7093 -36.2882 -357.824
rradius 20.5019
rwrist 373.809
rhand -12.7047 -48.1048
rfingers 7.12502
rthumb 13.3778 -77.6553
lclavicle -5.96354e-015 -1.98785e-015
lhumerus 1.87175 19.7549 7.03171
lradius 20.1185
lwrist 7.28074
lhand -16.2505 -7.17065
lfingers 7.12502
lthumb 9.95851 22.5738
rfemur 9.80956 22.7293 5.40146
rtibia -5.17515
rfoot -46.7175 -32.8121
rtoes 42.7907
lfemur 4.2846 -5.94292 -8.25036
ltibia -1.94799
lfoot -200.794 177.43
ltoes 34.879
639
root 12.3451 18.424 29.4988 190.367 -99.3463 173.647
lowerback -4.88058 0.281512 1.2731
upperback -3.67019 0.255903 -0.822835
thorax -1.02555 0.0648007 -1.54788
lowerneck -0.859268 -2.25177 0.629209
upperneck 2.08537 -3.08263 2.46066
head 0.808139 -1.51848 0.617354
rclavicle 1.56543e-015 1.59028e-015
rhumerus -21.7839 -34.2473 -358.217
rradius 20.9259
rwrist 371.696
rhand -12.6727 -48.4271
rfingers 7.12502
rthumb 13.4087 -77.9756
lclavicle 1.56543e-015 1.59028e-015
lhumerus 1.86154 19.8946 7.10526
lradius 20.1016
lwrist 7.25471
lhand -16.3404 -7.258
lfingers 7.12502
lthumb 9.87176 22.4906
rfemur 9.88363 22.7319 5.5576
rtibia -5.3393
rfoot -48.0757 -31.635
rtoes 44.8915
lfemur 4.37623 -6.05856 -8.10061
ltibia -2.00504
lfoot -200.811 177.069
ltoes 36.2344
640
root 12.3375 18.4232 29.492 191.585 -99.2825 172.418
lowerback -4.97273 0.338095 1.38736
upperback -3.64736 0.326656 -0.757185
thorax -0.948012 0.0997936 -1.54138
lowerneck -0.804611 -2.29528 0.602475
upperneck 1.99894 -3.13597 2.42566
head 0.772567 -1.54677 0.611528
rclavicle 8.10048e-015 8.74653e-015
rhumerus -21.8144 -33.6869 -358.325
rradius 21.0385
rwrist 371.094
rhand -12.9043 -48.6435
rfingers 7.12502
rthumb 13.1855 -78.2066
lclavicle 8.10048e-015 8.74653e-015
lhumerus 1.71237 19.2414 6.97259
lradius 20.1706
lwrist 7.99941
lhand -16.4184 -7.16593
lfingers 7.12502
lthumb 9.79654 22.5862
rfemur 9.91425 22.8152 5.7973
rtibia -5.38923
rfoot -48.4039 -31.1927
rtoes 45.1372
lfemur 4.48464 -6.31347 -7.88086
ltibia -2.13872
lfoot -201.052 177.003
ltoes 36.8184
641
root 12.331 18.4194 29.4898 191.892 -99.2528 172.144
lowerback -5.11313 0.37847 1.42541
upperback -3.61811 0.377199 -0.762777
thorax -0.837686 0.125499 -1.5657
lowerneck -0.674397 -2.28728 0.601074
upperneck 1.82003 -3.11855 2.42424
head 0.695439 -1.54079 0.613832
rclavicle -2.68111e-014 9.14409e-015
rhumerus -21.837 -33.8326 -358.302
rradius 21.0313
rwrist 371.262
rhand -12.928 -48.7184
rfingers 7.12502
rthumb 13.1626 -78.2829
lclavicle -2.68111e-014 9.14409e-015
lhumerus 1.71106 19.4006 7.01238
lradius 20.148
lwrist 7.91415
lhand -16.215 -7.09245
lfingers 7.12502
lthumb 9.99276 22.6503
rfemur 9.95665 22.8896 5.846
rtibia -5.32178
rfoot -47.4628 -31.6896
rtoes 43.3923
lfemur 4.46989 -6.22707 -7.83568
ltibia -2.11859
lfoot -201.056 177.294
ltoes 35.7339
642
root 12.3252 18.4173 29.4864 191.888 -99.2029 172.14
lowerback -5.19422 0.399356 1.42703
upperback -3.57908 0.404417 -0.779257
thorax -0.751267 0.140191 -1.58184
lowerneck -0.607078 -2.19756 0.455683
upperneck 1.77963 -2.99833 2.57594
head 0.675944 -1.4815 0.686321
rclavicle -2.35063e-014 -7.95139e-016
rhumerus -21.7693 -33.7338 -358.358
rradius 21.037
rwrist 371.198
rhand -12.8766 -48.5364
rfingers 7.12502
rthumb 13.2122 -78.0978
lclavicle -2.35063e-014 -7.95139e-016
lhumerus 1.69568 19.8471 7.07812
lradius 20.0778
lwrist 7.53243
lhand -16.1633 -7.34476
lfingers 7.12502
lthumb 10.0426 22.3956
rfemur 10.0567 23.021 5.87136
rtibia -5.35769
rfoot -47.0186 -31.9895
rtoes 42.3315
lfemur 4.50042 -6.14724 -7.8583
ltibia -2.09165
lfoot -201.037 177.463
ltoes 35.2826
643
root 12.3181 18.4189 29.4767 192.61 -99.0649 171.304
lowerback -5.15078 0.444569 1.47695
upperback -3.53027 0.464885 -0.746663
thorax -0.722776 0.171299 -1.57374
lowerneck -0.625083 -2.1346 0.250617
upperneck 1.87107 -2.9182 2.74751
head 0.712878 -1.44052 0.773287
rclavicle -2.11209e-015 9.54166e-015
rhumerus -21.6649 -34.3491 -358.281
rradius 20.8756
rwrist 371.788
rhand -13.017 -48.2802
rfingers 7.12502
rthumb 13.0768 -77.8502
lclavicle -2.11209e-015 9.54166e-015
lhumerus 1.60394 19.95 7.04002
lradius 20.0469
lwrist 7.41617
lhand -16.2609 -7.60406
lfingers 7.12502
lthumb 9.94849 22.1408
rfemur 10.1195 22.7846 5.94668
rtibia -5.37873
rfoot -46.501 -31.9756
rtoes 42.1795
lfemur 4.70203 -6.14028 -7.72293
ltibia -2.13547
lfoot -201.113 177.396
ltoes 35.7084
644
root 12.3099 18.4193 29.4658 192.853 -98.9568 170.95
lowerback -5.1032 0.496317 1.45337
upperback -3.49268 0.536571 -0.763067
thorax -0.707845 0.208368 -1.5743
lowerneck -0.628934 -2.15112 0.156138
upperneck 1.95472 -2.94475 2.87413
head 0.743757 -1.45281 0.827542
rclavicle 8.34896e-015 5.1684e-015
rhumerus -21.6675 -36.1077 -357.94
rradius 20.4888
rwrist 373.502
rhand -12.9983 -47.9339
rfingers 7.12502
rthumb 13.0948 -77.5028
lclavicle 8.34896e-015 5.1684e-015
lhumerus 1.57833 19.7853 6.9658
lradius 20.0773
lwrist 7.53388
lhand -16.0498 -7.3908
lfingers 7.12502
lthumb 10.1522 22.3443
rfemur 10.2107 22.5966 5.96473
rtibia -5.40244
rfoot -46.2722 -31.7767
rtoes 42.3578
lfemur 4.89688 -6.12738 -7.65283
ltibia -2.17059
lfoot -201.212 177.713
ltoes 34.5076
645
root 12.3019 18.4175 29.457 192.427 -98.9112 171.353
lowerback -5.14608 0.521914 1.34434
upperback -3.47766 0.574349 -0.817645
thorax -0.66749 0.228944 -1.5671
lowerneck -0.56591 -2.17663 0.0746862
upperneck 2.00285 -2.98283 3.02528
head 0.753016 -1.47163 0.888064
rclavicle -4.62174e-015 -3.18055e-015
rhumerus -21.6923 -34.3908 -358.394
rradius 20.8694
rwrist 371.731
rhand -13.0411 -48.1185
rfingers 7.12502
rthumb 13.0536 -77.69
lclavicle -4.62174e-015 -3.18055e-015
lhumerus 1.60173 19.8371 6.95333
lradius 20.0601
lwrist 7.51583
lhand -15.7702 -7.30548
lfingers 7.12502
lthumb 10.4218 22.4162
rfemur 10.4062 23.1809 6.10285
rtibia -5.48553
rfoot -47.1411 -31.3981
rtoes 42.6878
lfemur 4.97544 -6.11721 -7.71326
ltibia -2.20426
lfoot -201.231 178.163
ltoes 32.743
646
root 12.2944 18.4173 29.4494 192.152 -98.8929 171.631
lowerback -5.2225 0.532297 1.26411
upperback -3.46226 0.590379 -0.851246
thorax -0.608929 0.238425 -1.55521
lowerneck -0.473541 -2.19722 0.0630025
upperneck 2.01903 -3.01015 3.03023
head 0.74328 -1.48607 0.892193
rclavicle 6.11263e-015 -5.96354e-015
rhumerus -21.6445 -33.8218 -358.553
rradius 20.986
rwrist 371.128
rhand -13.0459 -48.2049
rfingers 7.12502
rthumb 13.0489 -77.7768
lclavicle 6.11263e-015 -5.96354e-015
lhumerus 1.63721 20.2249 7.03611
lradius 19.9814
lwrist 7.21779
lhand -15.743 -7.59987
lfingers 7.12502
lthumb 10.4481 22.1205
rfemur 10.5518 23.6169 6.23646
rtibia -5.53909
rfoot -47.6936 -31.1214
rtoes 43.0296
lfemur 5.01924 -6.14122 -7.77145
ltibia -2.25028
lfoot -201.224 178.316
ltoes 32.2659
647
root 12.2863 18.4178 29.4422 192.125 -98.8981 171.624
lowerback -5.26039 0.527856 1.22352
upperback -3.44744 0.585903 -0.853389
thorax -0.573102 0.237249 -1.53447
lowerneck -0.440782 -2.23883 0.149765
upperneck 2.09195 -3.0639 2.8457
head 0.755949 -1.51309 0.820149
rclavicle 1.39149e-015 -4.37326e-015
rhumerus -21.5657 -33.5225 -358.664
rradius 21.0894
rwrist 370.858
rhand -13.0194 -48.4387
rfingers 7.12502
rthumb 13.0745 -78.0089
lclavicle 1.39149e-015 -4.37326e-015
lhumerus 1.61483 20.2377 7.04599
lradius 19.939
lwrist 7.26691
lhand -15.8248 -7.61098
lfingers 7.12502
lthumb 10.3691 22.1134
rfemur 10.6635 23.5835 6.284
rtibia -5.61615
rfoot -47.8952 -30.8202
rtoes 43.4802
lfemur 5.06637 -6.17987 -7.76527
ltibia -2.22641
lfoot -201.203 178.241
ltoes 32.4172
